<svg width="69" height="68" viewBox="0 0 69 68" fill="none" xmlns="http://www.w3.org/2000/svg">
<g clip-path="url(#clip0_117_1239)" filter="url(#filter0_d_117_1239)">
<path d="M61.119 21.2611C60.3273 18.8096 60.6648 15.1295 58.607 12.2881C56.533 9.42425 52.9259 8.61027 50.889 7.12058C48.8736 5.6466 46.9986 2.43906 43.6085 1.33281C40.314 0.25773 36.9451 1.7166 34.333 1.7166C31.7213 1.7166 28.3526 0.257378 25.0575 1.33269C21.668 2.43871 19.7914 5.64695 17.7773 7.12023C15.7427 8.60816 12.1329 9.42437 10.0593 12.2877C8.0032 15.1268 8.3373 18.8153 7.54699 21.261C6.79488 23.5887 4.33301 26.3823 4.33301 30.0002C4.33301 33.6202 6.79207 36.403 7.54699 38.7392C8.33871 41.1907 8.00121 44.8708 10.059 47.7122C12.1329 50.5762 15.7399 51.39 17.777 52.8798C19.792 54.3536 21.6674 57.5614 25.0575 58.6675C28.3498 59.7419 31.7239 58.2837 34.333 58.2837C36.9384 58.2837 40.3205 59.7403 43.6085 58.6676C46.9982 57.5616 48.8735 54.3541 50.8887 52.8801C52.9233 51.3921 56.5331 50.5759 58.6068 47.7126C60.6629 44.8734 60.3286 41.1852 61.119 38.7393C61.8711 36.4115 64.333 33.6178 64.333 30.0002C64.333 26.3803 61.8745 23.5983 61.119 21.2611ZM56.6587 37.2979C55.7359 40.1543 55.9777 43.3511 54.8105 44.9629C53.6276 46.5961 50.5199 47.3421 48.1219 49.0962C45.7501 50.8307 44.0878 53.5803 42.1545 54.2111C40.3254 54.808 37.3446 53.596 34.3331 53.596C31.2996 53.596 28.3495 54.8106 26.5117 54.2111C24.5786 53.5803 22.9186 50.8326 20.5443 49.0961C18.1604 47.3527 15.035 46.5913 13.8555 44.9627C12.6921 43.3562 12.9247 40.1373 12.0075 37.298C11.1084 34.5161 9.02051 32.1073 9.02051 30.0002C9.02051 27.8909 11.1066 25.4904 12.0073 22.7024C12.9301 19.8461 12.6884 16.6491 13.8555 15.0374C15.0377 13.4052 18.1478 12.6568 20.5443 10.9041C22.9235 9.16398 24.5754 6.42097 26.5114 5.78921C28.339 5.19296 31.3295 6.40433 34.3329 6.40433C37.3719 6.40433 40.3146 5.18886 42.1543 5.78921C44.0872 6.41992 45.7486 9.16867 48.1219 10.9042C50.5054 12.6476 53.631 13.409 54.8105 15.0375C55.9741 16.6443 55.7402 19.8599 56.6585 22.7022V22.7023C57.5576 25.4842 59.6455 27.893 59.6455 30.0002C59.6455 32.1094 57.5595 34.5099 56.6587 37.2979ZM45.131 22.4773C46.0464 23.3927 46.0464 24.8766 45.131 25.7918L33.3998 37.523C32.4845 38.4384 31.0004 38.4382 30.0852 37.523L23.5351 30.9729C22.6198 30.0576 22.6196 28.5736 23.535 27.6584C24.4504 26.7432 25.9345 26.743 26.8495 27.6584L31.7425 32.5512L41.8162 22.4774C42.7316 21.5621 44.2157 21.5621 45.131 22.4773Z" fill="#242424"/>
</g>
<defs>
<filter id="filter0_d_117_1239" x="0.333008" y="0" width="68" height="68" filterUnits="userSpaceOnUse" color-interpolation-filters="sRGB">
<feFlood flood-opacity="0" result="BackgroundImageFix"/>
<feColorMatrix in="SourceAlpha" type="matrix" values="0 0 0 0 0 0 0 0 0 0 0 0 0 0 0 0 0 0 127 0" result="hardAlpha"/>
<feOffset dy="4"/>
<feGaussianBlur stdDeviation="2"/>
<feComposite in2="hardAlpha" operator="out"/>
<feColorMatrix type="matrix" values="0 0 0 0 0 0 0 0 0 0 0 0 0 0 0 0 0 0 0.25 0"/>
<feBlend mode="normal" in2="BackgroundImageFix" result="effect1_dropShadow_117_1239"/>
<feBlend mode="normal" in="SourceGraphic" in2="effect1_dropShadow_117_1239" result="shape"/>
</filter>
<clipPath id="clip0_117_1239">
<rect width="60" height="60" fill="white" transform="translate(4.33301)"/>
</clipPath>
</defs>
</svg>
