<svg width="61" height="58" viewBox="0 0 61 58" fill="none" xmlns="http://www.w3.org/2000/svg">
<g filter="url(#filter0_d_117_1248)">
<path d="M56.0149 29.102V1.77976C56.0149 0.805015 55.2247 0.0147705 54.2499 0.0147705H6.9621C5.98736 0.0147705 5.19711 0.805015 5.19711 1.77976V31.2801C4.34568 31.4042 3.51331 31.7347 2.77696 32.2814C0.455644 33.9274 -0.0933855 37.6111 1.85104 39.8828L9.80091 49.5205C14.7219 55.2799 19.9495 55.9855 27.7209 55.9855C34.3898 55.9855 37.3713 56.015 43.1835 54.6906L48.843 53.337C49.7606 54.6185 51.2175 55.4486 52.8552 55.4486H55.6432C58.4133 55.4486 60.667 53.0745 60.667 50.1562V34.3785C60.6671 31.5921 58.6119 29.3032 56.0149 29.102ZM48.0817 32.7327L45.73 31.5383C41.8634 29.5866 37.3929 29.5143 33.4652 31.3404C32.3936 31.7619 30.0564 33.176 28.8441 33.1287H20.6837C17.9769 33.1287 15.7747 35.3308 15.7747 38.0377V39.3249C15.7595 39.3089 15.7436 39.2937 15.7287 39.2774L9.90128 32.9521C9.54864 32.5693 9.15245 32.249 8.72721 31.992V14.4811H23.1711V20.9511C23.1711 21.9258 23.9613 22.7161 24.9361 22.7161H36.0733C37.048 22.7161 37.8382 21.9258 37.8382 20.9511V14.4811H52.4851V29.1019C50.4229 29.2612 48.7033 30.7365 48.0817 32.7327V32.7327ZM26.7009 14.4811H34.3081V19.1861H26.7009V14.4811ZM52.485 10.9511H37.8382V3.54475H52.4851V10.9511H52.485ZM34.3083 3.54475V10.9512H26.701V3.54475H34.3083ZM23.1709 3.54475V10.9512H8.72709V3.54475H23.1709ZM42.3643 51.2569C36.9952 52.4866 33.7616 52.4368 27.7842 52.4368C20.4889 52.4368 16.9639 52.3189 12.5242 47.2741L4.57431 37.6365C3.1915 35.8358 5.69613 33.7102 7.3051 35.3436L13.1325 41.6691C14.6726 43.2942 16.6107 44.1886 18.9994 44.2412H35.1559C36.1307 44.2412 36.9209 43.4509 36.9209 42.4762C36.9209 41.5014 36.1307 40.7112 35.1559 40.7112H19.3046V38.0375C19.3046 37.2771 19.9231 36.6584 20.6836 36.6584H28.844C30.6824 36.7901 33.3359 35.255 34.9533 34.5411C37.895 33.1734 41.2433 33.2275 44.1354 34.6873L47.8317 36.5648V49.949L42.3643 51.2569ZM57.1371 50.1561C57.1371 51.1279 56.467 51.9185 55.6433 51.9185H52.8554C52.0317 51.9185 51.3617 51.1279 51.3617 50.1561V34.3785C51.3617 33.4067 52.0318 32.616 52.8554 32.616H55.6433C56.467 32.616 57.1371 33.4066 57.1371 34.3785V50.1561Z" fill="#242424"/>
</g>
<defs>
<filter id="filter0_d_117_1248" x="-3.33301" y="0.0147705" width="68" height="63.9708" filterUnits="userSpaceOnUse" color-interpolation-filters="sRGB">
<feFlood flood-opacity="0" result="BackgroundImageFix"/>
<feColorMatrix in="SourceAlpha" type="matrix" values="0 0 0 0 0 0 0 0 0 0 0 0 0 0 0 0 0 0 127 0" result="hardAlpha"/>
<feOffset dy="4"/>
<feGaussianBlur stdDeviation="2"/>
<feComposite in2="hardAlpha" operator="out"/>
<feColorMatrix type="matrix" values="0 0 0 0 0 0 0 0 0 0 0 0 0 0 0 0 0 0 0.25 0"/>
<feBlend mode="normal" in2="BackgroundImageFix" result="effect1_dropShadow_117_1248"/>
<feBlend mode="normal" in="SourceGraphic" in2="effect1_dropShadow_117_1248" result="shape"/>
</filter>
</defs>
</svg>
